# xmcd CD database file
#
# Track frame offsets:
#	150
#	21021
#	34378
#	53927
#	69051
#	88005
#	101721
#	112431
#	137035
#	155560
#
# Disc length: 2699 seconds
#
# Revision: 0
# Processed by: cddbd v1.5.2PL0 Copyright (c) Steve Scherf et al.
# Submitted via: CDex 1.70beta2
#
DISCID=8a0a890a
DTITLE=Larsen's Last Chance - Hard Luck and Trouble
DYEAR=2007
DGENRE=Blues
TTITLE0=Love games
TTITLE1=Hard luck and trouble
TTITLE2=Big town blues
TTITLE3=The girl was talking
TTITLE4=Mr. Jukeboxman
TTITLE5=Ain't right
TTITLE6=Rockin' good time
TTITLE7=Black night
TTITLE8=Last Chance
TTITLE9=Good Times
EXTD=YEAR: 2007
EXTT0=
EXTT1=
EXTT2=
EXTT3=
EXTT4=
EXTT5=
EXTT6=
EXTT7=
EXTT8=
EXTT9=
PLAYORDER=
